<svg xmlns="http://www.w3.org/2000/svg" xmlns:svg="http://www.w3.org/2000/svg" xmlns:xlink="http://www.w3.org/1999/xlink" version="1.0" height="850.0000000000003pt" width="949pt" viewBox="546 47 957 856.0000000000003" ><defs><style type="text/css">
            @font-face {
                font-family: 'lt_regular';
                src: url('https://app.creately.com/diagram/assets/fonts/lato/lt-regular-webfont.woff2') format('woff2'),
                    url('https://app.creately.com/diagram/assets/fonts/lato/lt-regular-webfont.woff') format('woff');
                font-weight: normal;
                font-style: normal;
            }
            @font-face {
                font-family: 'noto_regular';
                src: url('https://app.creately.com/diagram/assets/fonts/noto/noto-regular.woff') format('woff'),
                     url('https://app.creately.com/diagram/assets/fonts/noto/noto-regular.woff2') format('woff2');
                font-weight: normal;
                font-style: normal;
            }
        p {
            margin: 0;
        }
        </style></defs><defs><style>
            span{ display: inline-block; }
        </style></defs><g id="jXRUyDDOtJD"><g transform="translate(800 50)"><rect x="0" y="0" width="200" height="202" rx="2" ry="2" fill="rgb(9,149,206)" stroke="#000000" stroke-width="2" stroke-linecap="round" stroke-linejoin="round" stroke-dasharray="0 0"/><path d="M 0,30 L 200,30" fill="rgb(9,149,206)" stroke="#000000" stroke-width="2" stroke-linecap="round" stroke-linejoin="round" stroke-dasharray="0 0"/></g><g transform="translate(836.5, 55) rotate(0, 63.5, 0)" width="127" height="20"><text text-decoration="none" x="0" fill="#ffffff" font-size="10pt" font-family="lt_regular"  y="15">Employee_User_Table</text><text text-decoration="none" x="128" fill="#4b4b4b" font-size="10pt" font-family="noto_regular"  y="15"></text></g><g transform="translate(810, 85) rotate(0, 0, 0)" width="106" height="110"><text text-decoration="none" x="0" fill="#ffffff" font-size="10pt" font-family="lt_regular"  y="14">Employee_ID&#160;</text><text text-decoration="none" x="80" fill="#ffffff" font-size="10pt" font-family="lt_regular"  y="14">:PK</text><text text-decoration="none" x="100" fill="#ffffff" font-size="10pt" font-family="lt_regular"  y="14"></text><text text-decoration="none" x="0" fill="#ffffff" font-size="10pt" font-family="lt_regular"  y="32">Employee_Name</text><text text-decoration="none" x="97" fill="#ffffff" font-size="10pt" font-family="lt_regular"  y="32"></text><text text-decoration="none" x="0" fill="#ffffff" font-size="10pt" font-family="lt_regular"  y="50">Employee_Emailid</text><text text-decoration="none" x="104" fill="#ffffff" font-size="10pt" font-family="lt_regular"  y="50"></text><text text-decoration="none" x="0" fill="#ffffff" font-size="10pt" font-family="lt_regular"  y="68">Desgination</text><text text-decoration="none" x="68" fill="#ffffff" font-size="10pt" font-family="lt_regular"  y="68"></text><text text-decoration="none" x="0" fill="#ffffff" font-size="10pt" font-family="lt_regular"  y="86">Project_Name</text><text text-decoration="none" x="81" fill="#ffffff" font-size="10pt" font-family="lt_regular"  y="86"></text><text text-decoration="none" x="0" fill="#ffffff" font-size="10pt" font-family="lt_regular"  y="105">Project_ID&#160;</text><text text-decoration="none" x="64" fill="#ffffff" font-size="10pt" font-family="lt_regular"  y="105">:&#160;</text><text text-decoration="none" x="70" fill="#ffffff" font-size="10pt" font-family="lt_regular"  y="105">FK</text><text text-decoration="none" x="86" fill="#4b4b4b" font-size="10pt" font-family="noto_regular"  y="105"></text></g></g><g id="ky5hmMRmIfe"><g transform="translate(1099.9999999999998 70)"><rect x="0" y="0" width="180" height="160.00000000000006" rx="2" ry="2" fill="rgb(99,201,213)" stroke="#000000" stroke-width="2" stroke-linecap="round" stroke-linejoin="round" stroke-dasharray="0 0"/><path d="M 0,46 L 180,46" fill="rgb(99,201,213)" stroke="#000000" stroke-width="2" stroke-linecap="round" stroke-linejoin="round" stroke-dasharray="0 0"/></g><g transform="translate(1135.9999999999998, 75) rotate(0, 54, 0)" width="108" height="36"><text text-decoration="none" x="0" fill="#ffffff" font-size="10pt" font-family="lt_regular"  y="14">User_Profile_Table</text><text text-decoration="none" x="108" fill="#ffffff" font-size="10pt" font-family="lt_regular"  y="14"></text><text text-decoration="none" x="54" fill="#4b4b4b" font-size="10pt" font-family="noto_regular"  y="33"></text></g><g transform="translate(1109.9999999999998, 121) rotate(0, 0, 0)" width="139" height="92"><text text-decoration="none" x="0" fill="#ffffff" font-size="10pt" font-family="lt_regular"  y="14">Login_Name&#160;</text><text text-decoration="none" x="74" fill="#ffffff" font-size="10pt" font-family="lt_regular"  y="14">:(Employee&#160;</text><text text-decoration="none" x="0" fill="#ffffff" font-size="10pt" font-family="lt_regular"  y="32">Email_Id-&#160;</text><text text-decoration="none" x="56" fill="#ffffff" font-size="10pt" font-family="lt_regular"  y="32">FK)</text><text text-decoration="none" x="75" fill="#ffffff" font-size="10pt" font-family="lt_regular"  y="32"></text><text text-decoration="none" x="0" fill="#ffffff" font-size="10pt" font-family="lt_regular"  y="50">Password:&#160;</text><text text-decoration="none" x="61" fill="#ffffff" font-size="10pt" font-family="lt_regular"  y="50"></text><text text-decoration="none" x="0" fill="#ffffff" font-size="10pt" font-family="lt_regular"  y="68">Employee_Name</text><text text-decoration="none" x="97" fill="#ffffff" font-size="10pt" font-family="lt_regular"  y="68"></text><text text-decoration="none" x="0" fill="#ffffff" font-size="10pt" font-family="lt_regular"  y="87">Employee_ID:&#160;</text><text text-decoration="none" x="83" fill="#ffffff" font-size="10pt" font-family="lt_regular"  y="87">FK</text><text text-decoration="none" x="99" fill="#4b4b4b" font-size="10pt" font-family="noto_regular"  y="87"></text></g></g><g id="9dDhA7AIMuJ"><g transform="translate(950 400)"><rect x="0" y="0" width="200" height="350.00000000000006" rx="2" ry="2" fill="rgb(5,79,122)" stroke="#ffffff" stroke-width="2" stroke-linecap="round" stroke-linejoin="round" stroke-dasharray="0 0"/><path d="M 0,46 L 200,46" fill="rgb(5,79,122)" stroke="#ffffff" stroke-width="2" stroke-linecap="round" stroke-linejoin="round" stroke-dasharray="0 0"/></g><g transform="translate(1020.5, 405) rotate(0, 29.5, 0)" width="59" height="36"><text text-decoration="none" x="0" fill="#ffffff" font-size="10pt" font-family="lt_regular"  y="14">Bug_Table</text><text text-decoration="none" x="59" fill="#ffffff" font-size="10pt" font-family="lt_regular"  y="14"></text><text text-decoration="none" x="29.5" fill="#4b4b4b" font-size="10pt" font-family="noto_regular"  y="33"></text></g><g transform="translate(960, 451) rotate(0, 0, 0)" width="122" height="254"><text text-decoration="none" x="0" fill="#ffffff" font-size="10pt" font-family="lt_regular"  y="14">Bug_ID:&#160;</text><text text-decoration="none" x="48" fill="#ffffff" font-size="10pt" font-family="lt_regular"  y="14">PK</text><text text-decoration="none" x="65" fill="#ffffff" font-size="10pt" font-family="lt_regular"  y="14"></text><text text-decoration="none" x="0" fill="#ffffff" font-size="10pt" font-family="lt_regular"  y="32">Project_ID&#160;</text><text text-decoration="none" x="64" fill="#ffffff" font-size="10pt" font-family="lt_regular"  y="32">:&#160;</text><text text-decoration="none" x="70" fill="#ffffff" font-size="10pt" font-family="lt_regular"  y="32">FK</text><text text-decoration="none" x="86" fill="#ffffff" font-size="10pt" font-family="lt_regular"  y="32"></text><text text-decoration="none" x="0" fill="#ffffff" font-size="10pt" font-family="lt_regular"  y="50">Project_Name</text><text text-decoration="none" x="81" fill="#ffffff" font-size="10pt" font-family="lt_regular"  y="50"></text><text text-decoration="none" x="0" fill="#ffffff" font-size="10pt" font-family="lt_regular"  y="68">Assigner_ID&#160;</text><text text-decoration="none" x="73" fill="#ffffff" font-size="10pt" font-family="lt_regular"  y="68">:&#160;</text><text text-decoration="none" x="79" fill="#ffffff" font-size="10pt" font-family="lt_regular"  y="68">FK</text><text text-decoration="none" x="95" fill="#ffffff" font-size="10pt" font-family="lt_regular"  y="68"></text><text text-decoration="none" x="0" fill="#ffffff" font-size="10pt" font-family="lt_regular"  y="86">Assignee_ID:&#160;</text><text text-decoration="none" x="78" fill="#ffffff" font-size="10pt" font-family="lt_regular"  y="86">FK</text><text text-decoration="none" x="94" fill="#ffffff" font-size="10pt" font-family="lt_regular"  y="86"></text><text text-decoration="none" x="0" fill="#ffffff" font-size="10pt" font-family="lt_regular"  y="104">Bug_Description</text><text text-decoration="none" x="94" fill="#ffffff" font-size="10pt" font-family="lt_regular"  y="104"></text><text text-decoration="none" x="0" fill="#ffffff" font-size="10pt" font-family="lt_regular"  y="122">Created_Date</text><text text-decoration="none" x="80" fill="#ffffff" font-size="10pt" font-family="lt_regular"  y="122"></text><text text-decoration="none" x="0" fill="#ffffff" font-size="10pt" font-family="lt_regular"  y="140">Updated_Date</text><text text-decoration="none" x="83" fill="#ffffff" font-size="10pt" font-family="lt_regular"  y="140"></text><text text-decoration="none" x="0" fill="#ffffff" font-size="10pt" font-family="lt_regular"  y="158">Due_Date</text><text text-decoration="none" x="58" fill="#ffffff" font-size="10pt" font-family="lt_regular"  y="158"></text><text text-decoration="none" x="0" fill="#ffffff" font-size="10pt" font-family="lt_regular"  y="176">Status&#160;</text><text text-decoration="none" x="39" fill="#ffffff" font-size="10pt" font-family="lt_regular"  y="176">:&#160;</text><text text-decoration="none" x="45" fill="#ffffff" font-size="10pt" font-family="lt_regular"  y="176">FK</text><text text-decoration="none" x="61" fill="#ffffff" font-size="10pt" font-family="lt_regular"  y="176"></text><text text-decoration="none" x="0" fill="#ffffff" font-size="10pt" font-family="lt_regular"  y="194">Priority&#160;</text><text text-decoration="none" x="46" fill="#ffffff" font-size="10pt" font-family="lt_regular"  y="194">:&#160;</text><text text-decoration="none" x="52" fill="#ffffff" font-size="10pt" font-family="lt_regular"  y="194">FK</text><text text-decoration="none" x="68" fill="#ffffff" font-size="10pt" font-family="lt_regular"  y="194"></text><text text-decoration="none" x="0" fill="#ffffff" font-size="10pt" font-family="lt_regular"  y="212">Severity&#160;&#160;</text><text text-decoration="none" x="54" fill="#ffffff" font-size="10pt" font-family="lt_regular"  y="212">:&#160;</text><text text-decoration="none" x="60" fill="#ffffff" font-size="10pt" font-family="lt_regular"  y="212">FK</text><text text-decoration="none" x="76" fill="#ffffff" font-size="10pt" font-family="lt_regular"  y="212"></text><text text-decoration="none" x="0" fill="#ffffff" font-size="10pt" font-family="lt_regular"  y="230">Resolution_Summary</text><text text-decoration="none" x="120" fill="#ffffff" font-size="10pt" font-family="lt_regular"  y="230"></text><text text-decoration="none" x="0" fill="#ffffff" font-size="10pt" font-family="lt_regular"  y="249">Comments</text><text text-decoration="none" x="63" fill="#4b4b4b" font-size="10pt" font-family="noto_regular"  y="249"></text></g></g><g id="zTeMbTVglhX"><g transform="translate(1300 300)"><rect x="0" y="0" width="199.99999999999994" height="90.00000000000003" rx="2" ry="2" fill="rgb(9,149,206)" stroke="#000000" stroke-width="2" stroke-linecap="round" stroke-linejoin="round" stroke-dasharray="0 0"/><path d="M 0,30 L 199.99999999999994,30" fill="rgb(9,149,206)" stroke="#000000" stroke-width="2" stroke-linecap="round" stroke-linejoin="round" stroke-dasharray="0 0"/></g><g transform="translate(1310, 305) rotate(0, 0, 0)" width="84" height="20"><text text-decoration="none" x="0" fill="#ffffff" font-size="10pt" font-family="lt_regular"  y="15">Severity_Table</text><text text-decoration="none" x="85" fill="#4b4b4b" font-size="10pt" font-family="noto_regular"  y="15"></text></g><g transform="translate(1310, 335) rotate(0, 0, 0)" width="67" height="38"><text text-decoration="none" x="0" fill="#ffffff" font-size="10pt" font-family="lt_regular"  y="14">Severity</text><text text-decoration="none" x="48" fill="#ffffff" font-size="10pt" font-family="lt_regular"  y="14"></text><text text-decoration="none" x="0" fill="#ffffff" font-size="10pt" font-family="lt_regular"  y="33">Description</text><text text-decoration="none" x="66" fill="#4b4b4b" font-size="10pt" font-family="noto_regular"  y="33"></text></g></g><g id="vsFhOEP3NOO"><g transform="translate(1300 500.00000000000006)"><rect x="0" y="0" width="200.00000000000006" height="150.00000000000003" rx="2" ry="2" fill="rgb(9,149,206)" stroke="#000000" stroke-width="2" stroke-linecap="round" stroke-linejoin="round" stroke-dasharray="0 0"/><path d="M 0,30 L 200.00000000000006,30" fill="rgb(9,149,206)" stroke="#000000" stroke-width="2" stroke-linecap="round" stroke-linejoin="round" stroke-dasharray="0 0"/></g><g transform="translate(1310, 505.00000000000006) rotate(0, 0, 0)" width="103" height="20"><text text-decoration="none" x="0" fill="#ffffff" font-size="10pt" font-family="lt_regular"  y="15">Deliverable_Table</text><text text-decoration="none" x="102" fill="#4b4b4b" font-size="10pt" font-family="noto_regular"  y="15"></text></g><g transform="translate(1310, 535) rotate(0, 0, 0)" width="133" height="92"><text text-decoration="none" x="0" fill="#ffffff" font-size="10pt" font-family="lt_regular"  y="14">Bug_ID:&#160;</text><text text-decoration="none" x="48" fill="#ffffff" font-size="10pt" font-family="lt_regular"  y="14">FK</text><text text-decoration="none" x="64" fill="#ffffff" font-size="10pt" font-family="lt_regular"  y="14"></text><text text-decoration="none" x="0" fill="#ffffff" font-size="10pt" font-family="lt_regular"  y="32">Asignee_ID:&#160;</text><text text-decoration="none" x="72" fill="#ffffff" font-size="10pt" font-family="lt_regular"  y="32">FK</text><text text-decoration="none" x="88" fill="#ffffff" font-size="10pt" font-family="lt_regular"  y="32"></text><text text-decoration="none" x="0" fill="#ffffff" font-size="10pt" font-family="lt_regular"  y="50">Bug_Status</text><text text-decoration="none" x="64" fill="#ffffff" font-size="10pt" font-family="lt_regular"  y="50"></text><text text-decoration="none" x="0" fill="#ffffff" font-size="10pt" font-family="lt_regular"  y="68">Estimated_Finish_Date</text><text text-decoration="none" x="131" fill="#ffffff" font-size="10pt" font-family="lt_regular"  y="68"></text><text text-decoration="none" x="0" fill="#ffffff" font-size="10pt" font-family="lt_regular"  y="87">Actual_Finish_Date</text><text text-decoration="none" x="109" fill="#4b4b4b" font-size="10pt" font-family="noto_regular"  y="87"></text></g></g><g id="43PFJ0IG26n"><g transform="translate(600.0000000000001 400)"><rect x="0" y="0" width="200.00000000000054" height="120.00000000000009" rx="2" ry="2" fill="rgb(52,189,204)" stroke="#000000" stroke-width="2" stroke-linecap="round" stroke-linejoin="round" stroke-dasharray="0 0"/><path d="M 0,30 L 200.00000000000054,30" fill="rgb(52,189,204)" stroke="#000000" stroke-width="2" stroke-linecap="round" stroke-linejoin="round" stroke-dasharray="0 0"/></g><g transform="translate(610.0000000000001, 405) rotate(0, 0, 0)" width="78" height="20"><text text-decoration="none" x="0" fill="#ffffff" font-size="10pt" font-family="lt_regular"  y="15">Project_Table</text><text text-decoration="none" x="78" fill="#4b4b4b" font-size="10pt" font-family="noto_regular"  y="15"></text></g><g transform="translate(610.0000000000001, 435) rotate(0, 0, 0)" width="115" height="56"><text text-decoration="none" x="0" fill="#ffffff" font-size="10pt" font-family="lt_regular"  y="14">Project_ID:&#160;</text><text text-decoration="none" x="67" fill="#ffffff" font-size="10pt" font-family="lt_regular"  y="14">PK</text><text text-decoration="none" x="84" fill="#ffffff" font-size="10pt" font-family="lt_regular"  y="14"></text><text text-decoration="none" x="0" fill="#ffffff" font-size="10pt" font-family="lt_regular"  y="32">Project_Name&#160;</text><text text-decoration="none" x="84" fill="#ffffff" font-size="10pt" font-family="lt_regular"  y="32"></text><text text-decoration="none" x="0" fill="#ffffff" font-size="10pt" font-family="lt_regular"  y="51">Project_Description</text><text text-decoration="none" x="113" fill="#4b4b4b" font-size="10pt" font-family="noto_regular"  y="51"></text></g></g><g id="JUV84xwagyG"><g transform="translate(600 790.0000000000002)"><rect x="0" y="0" width="200.00000000000026" height="110.00000000000016" rx="2" ry="2" fill="rgb(9,149,206)" stroke="#000000" stroke-width="2" stroke-linecap="round" stroke-linejoin="round" stroke-dasharray="0 0"/><path d="M 0,30 L 200.00000000000026,30" fill="rgb(9,149,206)" stroke="#000000" stroke-width="2" stroke-linecap="round" stroke-linejoin="round" stroke-dasharray="0 0"/></g><g transform="translate(610, 795.0000000000002) rotate(0, 0, 0)" width="80" height="20"><text text-decoration="none" x="0" fill="#ffffff" font-size="10pt" font-family="lt_regular"  y="15">Priority_Table</text><text text-decoration="none" x="80" fill="#4b4b4b" font-size="10pt" font-family="noto_regular"  y="15"></text></g><g transform="translate(610, 825.0000000000002) rotate(0, 0, 0)" width="117" height="38"><text text-decoration="none" x="0" fill="#ffffff" font-size="10pt" font-family="lt_regular"  y="14">Priority</text><text text-decoration="none" x="43" fill="#ffffff" font-size="10pt" font-family="lt_regular"  y="14"></text><text text-decoration="none" x="0" fill="#ffffff" font-size="10pt" font-family="lt_regular"  y="33">Priority_Description</text><text text-decoration="none" x="115" fill="#4b4b4b" font-size="10pt" font-family="noto_regular"  y="33"></text></g></g><g id="leGocvDIDDr"><g transform="translate(600 670.0000000000001)"><rect x="0" y="0" width="200.0000000000002" height="90.00000000000003" rx="2" ry="2" fill="rgb(52,189,204)" stroke="#000000" stroke-width="2" stroke-linecap="round" stroke-linejoin="round" stroke-dasharray="0 0"/><path d="M 0,30 L 200.0000000000002,30" fill="rgb(52,189,204)" stroke="#000000" stroke-width="2" stroke-linecap="round" stroke-linejoin="round" stroke-dasharray="0 0"/></g><g transform="translate(610, 675.0000000000001) rotate(0, 0, 0)" width="74" height="20"><text text-decoration="none" x="0" fill="#ffffff" font-size="10pt" font-family="lt_regular"  y="15">Project_User</text><text text-decoration="none" x="75" fill="#4b4b4b" font-size="10pt" font-family="noto_regular"  y="15"></text></g><g transform="translate(610, 705.0000000000001) rotate(0, 0, 0)" width="87" height="38"><text text-decoration="none" x="0" fill="#ffffff" font-size="10pt" font-family="lt_regular"  y="14">Project_ID&#160;</text><text text-decoration="none" x="64" fill="#ffffff" font-size="10pt" font-family="lt_regular"  y="14">:&#160;</text><text text-decoration="none" x="70" fill="#ffffff" font-size="10pt" font-family="lt_regular"  y="14">FK</text><text text-decoration="none" x="86" fill="#ffffff" font-size="10pt" font-family="lt_regular"  y="14"></text><text text-decoration="none" x="0" fill="#ffffff" font-size="10pt" font-family="lt_regular"  y="33">User_ID:&#160;</text><text text-decoration="none" x="54" fill="#ffffff" font-size="10pt" font-family="lt_regular"  y="33">FK</text><text text-decoration="none" x="70" fill="#4b4b4b" font-size="10pt" font-family="noto_regular"  y="33"></text></g></g><g id="uEeSvQBhey6"><g transform="translate(600.0000000000001 549.9999999999998)"><rect x="0" y="0" width="200.00000000000065" height="90" rx="2" ry="2" fill="rgb(9,149,206)" stroke="#000000" stroke-width="2" stroke-linecap="round" stroke-linejoin="round" stroke-dasharray="0 0"/><path d="M 0,30 L 200.00000000000065,30" fill="rgb(9,149,206)" stroke="#000000" stroke-width="2" stroke-linecap="round" stroke-linejoin="round" stroke-dasharray="0 0"/></g><g transform="translate(610.0000000000001, 554.9999999999998) rotate(0, 0, 0)" width="102" height="20"><text text-decoration="none" x="0" fill="#ffffff" font-size="10pt" font-family="lt_regular"  y="15">Bug_Status_Table</text><text text-decoration="none" x="101" fill="#4b4b4b" font-size="10pt" font-family="noto_regular"  y="15"></text></g><g transform="translate(610.0000000000001, 584.9999999999998) rotate(0, 0, 0)" width="67" height="38"><text text-decoration="none" x="0" fill="#ffffff" font-size="10pt" font-family="lt_regular"  y="14">Status&#160;</text><text text-decoration="none" x="39" fill="#ffffff" font-size="10pt" font-family="lt_regular"  y="14">:&#160;</text><text text-decoration="none" x="45" fill="#ffffff" font-size="10pt" font-family="lt_regular"  y="14">PK</text><text text-decoration="none" x="62" fill="#ffffff" font-size="10pt" font-family="lt_regular"  y="14"></text><text text-decoration="none" x="0" fill="#ffffff" font-size="10pt" font-family="lt_regular"  y="33">Description</text><text text-decoration="none" x="66" fill="#4b4b4b" font-size="10pt" font-family="noto_regular"  y="33"></text></g></g><g id="T34qJuB0dhu"><g><path d="M 600,715 L 551,715 L 551,586 L 551,457.7484468227712 L 576,458 L 600,457.7484468227712 L 600,460" fill="none" stroke="#0995CE" stroke-width="2" stroke-linecap="round" stroke-linejoin="round" stroke-dasharray="0 0"/></g></g><g id="tLDk60w3Kc3"><g><path d="M 950,488 L 875,488 L 875,474 L 875,460 L 800,460" fill="none" stroke="#054F7A" stroke-width="2" stroke-linecap="round" stroke-linejoin="round" stroke-dasharray="0 0"/><path d="M 800,460 L 808.695652173913,465.75 L 808.695652173913,454.25 Z" fill="rgb(5,79,122)" stroke="#054F7A" stroke-width="2" stroke-linecap="round" stroke-linejoin="round"/></g></g><g id="T2GbloDqTPQ"><g><path d="M 950,575 L 875,575 L 875,585 L 875,595 L 800,595" fill="none" stroke="#054F7A" stroke-width="2" stroke-linecap="round" stroke-linejoin="round" stroke-dasharray="0 0"/><path d="M 800,595 L 808.695652173913,600.75 L 808.695652173913,589.25 Z" fill="rgb(5,79,122)" stroke="#054F7A" stroke-width="2" stroke-linecap="round" stroke-linejoin="round"/></g></g><g id="nvUQxM0N1Kd"><g><path d="M 1000,750 L 1000,818 L 800,818" fill="none" stroke="#054F7A" stroke-width="2" stroke-linecap="round" stroke-linejoin="round" stroke-dasharray="0 0"/><path d="M 800,818 L 808.695652173913,823.75 L 808.695652173913,812.25 Z" fill="rgb(5,79,122)" stroke="#054F7A" stroke-width="2" stroke-linecap="round" stroke-linejoin="round"/></g></g><g id="lcfzizKP8ff"><g><path d="M 800,693 L 875,693 L 875,678 L 875,663 L 950,663" fill="none" stroke="#054F7A" stroke-width="2" stroke-linecap="round" stroke-linejoin="round" stroke-dasharray="0 0"/><path d="M 800,693 L 808.695652173913,698.75 L 808.695652173913,687.25 Z" fill="rgb(5,79,122)" stroke="#054F7A" stroke-width="2" stroke-linecap="round" stroke-linejoin="round"/></g></g><g id="ubC5mD1bbu9"><g><path d="M 1150,575 L 1225,575 L 1225,575.0000000000001 L 1300,575" fill="none" stroke="#054F7A" stroke-width="2" stroke-linecap="round" stroke-linejoin="round" stroke-dasharray="0 0"/><path d="M 1300,575 L 1291.304347826087,569.25 L 1291.304347826087,580.75 Z" fill="rgb(5,79,122)" stroke="#054F7A" stroke-width="2" stroke-linecap="round" stroke-linejoin="round"/></g></g><g id="a8dE8Vi4bBa"><g><path d="M 1150,488 L 1225,487.5 L 1225,416 L 1225,345 L 1300,345" fill="none" stroke="#054F7A" stroke-width="2" stroke-linecap="round" stroke-linejoin="round" stroke-dasharray="0 0"/><path d="M 1300,345 L 1291.304347826087,339.25 L 1291.304347826087,350.75 Z" fill="rgb(5,79,122)" stroke="#054F7A" stroke-width="2" stroke-linecap="round" stroke-linejoin="round"/></g></g><g id="hikTcOhFTpm"><g><path d="M 900,252 L 900,326 L 950,326 L 1000,326 L 1000,400" fill="none" stroke="#054F7A" stroke-width="2" stroke-linecap="round" stroke-linejoin="round" stroke-dasharray="0 0"/><path d="M 900,252 L 894.25,260.69565217391306 L 905.75,260.69565217391306 Z" fill="rgb(5,79,122)" stroke="#054F7A" stroke-width="2" stroke-linecap="round" stroke-linejoin="round"/></g></g><g id="IDofUGvpJhM"><g><path d="M 1000,151 L 1050,151 L 1050,151 L 1050,150.00000000000003 L 1100,150" fill="none" stroke="#0995CE" stroke-width="2" stroke-linecap="round" stroke-linejoin="round" stroke-dasharray="0 0"/></g></g></svg>